{"glyphs":{":":{"x_min":0,"x_max":230,"ha":230,"o":"m 99 0 l 179 0 l 179 86 l 99 86 z m 99 416 l 179 416 l 179 502 l 99 502 z"},"$":{"x_min":0,"x_max":565,"ha":565,"o":"m 296 316 b 370 291 450 262 450 172 b 450 88 375 42 296 36 z m 256 383 b 185 405 120 435 120 517 b 120 591 175 656 256 656 z m 296 -14 b 424 -14 510 54 510 182 b 510 299 396 341 296 371 l 296 658 b 371 654 435 618 438 539 l 498 539 b 487 642 402 706 296 706 l 296 755 l 256 755 l 256 706 b 158 706 60 622 60 526 b 60 394 142 363 256 323 l 256 36 b 168 41 109 80 107 169 l 47 169 l 47 165 b 47 46 142 -10 256 -15 l 256 -68 l 296 -68 z"},"?":{"x_min":0,"x_max":464,"ha":464,"o":"m 164 0 l 244 0 l 244 86 l 164 86 z m 425 556 b 425 670 363 737 248 737 b 164 737 91 709 33 646 l 83 608 b 131 657 180 677 248 677 b 322 677 360 627 360 556 b 360 418 174 375 174 239 l 174 169 l 234 169 l 234 239 b 234 352 425 405 425 556 z"},"<":{"x_min":0,"x_max":613,"ha":613,"o":"m 580 437 l 580 501 l 80 278 l 80 225 l 580 -10 l 580 54 l 159 251 z"},"'":{"x_min":0,"x_max":226,"ha":226,"o":"m 139 496 l 139 722 l 87 722 l 87 496 z"},"=":{"x_min":0,"x_max":602,"ha":602,"o":"m 80 184 l 80 124 l 580 124 l 580 184 z m 80 378 l 80 318 l 580 318 l 580 378 z"},"a":{"x_min":0,"x_max":494,"ha":494,"o":"m 36 140 b 36 43 110 -15 203 -15 b 265 -15 337 13 363 74 l 365 74 l 365 0 l 424 0 l 424 351 b 424 453 364 517 237 517 b 136 517 48 452 48 347 l 112 347 b 112 413 160 462 236 462 b 359 462 365 391 364 292 b 243 292 36 308 36 140 z m 101 140 b 101 248 266 237 320 237 l 364 237 l 364 156 b 364 84 275 40 203 40 b 146 40 101 75 101 140 z"},"L":{"x_min":0,"x_max":528,"ha":528,"o":"m 528 60 l 165 60 l 165 722 l 100 722 l 100 0 l 528 0 z"},"3":{"x_min":0,"x_max":570,"ha":570,"o":"m 206 329 b 297 329 448 315 448 193 b 448 99 374 45 285 45 b 203 45 122 94 123 183 l 53 183 b 56 59 160 -15 278 -15 b 395 -15 518 55 518 185 b 518 279 430 342 346 360 l 346 362 b 420 378 507 434 507 518 b 507 640 395 708 284 708 b 174 708 63 641 63 521 l 133 521 b 141 600 205 648 283 648 b 355 648 437 603 437 522 b 437 402 295 392 206 392 z"},";":{"x_min":0,"x_max":254,"ha":254,"o":"m 107 416 l 187 416 l 187 502 l 107 502 z m 78 -124 l 130 -124 l 202 81 l 121 81 z"},"J":{"x_min":0,"x_max":504,"ha":504,"o":"m 15 178 b 25 73 88 -15 201 -15 b 347 -15 414 88 414 225 l 414 722 l 349 722 l 349 225 b 349 123 317 45 201 45 b 125 45 91 111 85 178 z"},"V":{"x_min":0,"x_max":619,"ha":619,"o":"m 10 722 l 274 0 l 348 0 l 609 722 l 544 722 l 315 65 l 313 65 l 81 722 z"},"\"":{"x_min":0,"x_max":281,"ha":281,"o":"m 220 496 l 220 722 l 168 722 l 168 496 z m 110 496 l 110 722 l 58 722 l 58 496 z"},"7":{"x_min":0,"x_max":570,"ha":570,"o":"m 65 692 l 65 632 l 438 632 l 161 0 l 237 0 l 506 632 l 506 692 z"},"S":{"x_min":0,"x_max":615,"ha":615,"o":"m 555 179 b 555 428 147 341 147 546 b 147 639 224 675 307 675 b 381 675 470 648 472 560 l 542 560 b 527 686 421 732 307 732 b 192 732 77 662 77 537 b 77 284 485 375 485 179 b 485 71 408 37 311 37 b 211 37 133 73 130 183 l 60 183 b 63 33 178 -20 313 -20 b 436 -20 555 41 555 179 z"},"}":{"x_min":0,"x_max":280,"ha":280,"o":"m 168 264 b 23 119 188 -106 30 -96 l 30 -146 l 80 -146 b 257 -146 81 214 240 236 l 240 291 b 78 313 252 672 80 672 l 30 672 l 30 622 b 187 630 27 365 168 264 z"},"Z":{"x_min":0,"x_max":535,"ha":535,"o":"m 517 60 l 115 60 l 517 662 l 517 722 l 39 722 l 39 662 l 440 662 l 39 60 l 39 0 l 517 0 z"},"x":{"x_min":0,"x_max":502,"ha":502,"o":"m 107 502 l 27 502 l 212 257 l 20 2 l 18 0 l 86 0 l 244 218 l 405 0 l 484 0 l 288 259 l 468 502 l 405 502 l 254 300 z"},")":{"x_min":0,"x_max":275,"ha":275,"o":"m 95 -96 b 98 -87 106 -65 119 -32 b 132 1 140 25 145 38 b 150 51 157 73 166 102 b 185 161 189 189 196 240 b 200 266 202 290 202 313 b 202 360 196 410 183 464 b 170 516 141 602 94 722 l 44 722 b 103 571 132 435 132 313 b 132 191 103 55 44 -96 z"},"&":{"x_min":0,"x_max":720,"ha":720,"o":"m 233 422 b 147 366 56 267 56 158 b 56 50 156 -15 256 -15 b 388 -15 424 51 491 150 l 625 0 l 718 0 l 525 204 l 653 408 l 579 408 l 484 248 l 326 419 b 386 462 458 508 458 591 b 458 677 378 737 297 737 b 216 737 139 675 139 591 b 139 521 191 472 233 422 z m 209 591 b 209 637 249 677 295 677 b 340 677 388 638 388 591 b 388 520 330 501 287 461 b 254 496 209 539 209 591 z m 264 44 b 195 44 125 83 125 159 b 125 248 205 336 275 381 l 451 194 b 406 128 354 44 264 44 z"},"_":{"x_min":0,"x_max":467,"ha":467,"o":"m 500 -68 l 0 -68 l 0 -124 l 500 -124 z"},"v":{"x_min":0,"x_max":502,"ha":502,"o":"m 220 0 l 288 0 l 487 502 l 421 502 l 254 83 l 81 502 l 15 502 z"},"O":{"x_min":0,"x_max":774,"ha":774,"o":"m 387 737 b 164 737 65 565 65 361 b 65 157 164 -15 387 -15 b 609 -15 709 158 709 361 b 709 564 609 737 387 737 z m 387 677 b 563 677 639 522 639 366 b 639 207 569 45 387 45 b 211 45 135 202 135 358 b 135 517 206 677 387 677 z"},"(":{"x_min":0,"x_max":266,"ha":266,"o":"m 234 -96 b 175 55 146 191 146 313 b 146 435 175 571 234 722 l 184 722 l 175 699 b 154 644 137 600 126 569 b 115 538 103 497 92 448 b 81 399 76 354 76 313 b 76 268 85 211 92 174 b 96 155 103 131 112 102 b 121 73 128 51 133 38 b 138 25 146 1 159 -32 b 172 -65 180 -87 183 -96 z"},"C":{"x_min":0,"x_max":667,"ha":667,"o":"m 619 560 b 586 677 492 737 371 737 b 145 737 60 563 60 361 b 60 163 150 -15 371 -15 b 487 -15 599 64 619 184 l 549 184 b 532 98 454 45 371 45 b 190 45 130 205 130 361 b 130 522 183 677 371 677 b 454 677 527 643 549 560 z"},"W":{"x_min":0,"x_max":1001,"ha":1001,"o":"m 499 655 l 712 0 l 801 0 l 991 722 l 928 722 l 761 65 l 759 65 l 539 722 l 460 722 l 249 65 l 247 65 l 79 722 l 10 722 l 198 0 l 290 0 l 497 655 z"},"A":{"x_min":0,"x_max":668,"ha":668,"o":"m 152 195 l 511 195 l 588 0 l 659 0 l 371 722 l 295 722 l 9 0 l 76 0 z m 332 662 l 488 255 l 173 255 z"},"f":{"x_min":0,"x_max":333,"ha":333,"o":"m 183 447 l 289 447 l 289 502 l 183 502 l 183 589 b 183 673 208 693 289 674 l 301 723 b 282 728 263 734 244 734 b 95 734 123 607 123 502 l 22 502 l 22 447 l 123 447 l 123 0 l 183 0 z"},"Q":{"x_min":0,"x_max":810,"ha":810,"o":"m 647 361 b 647 208 566 45 393 45 b 222 45 139 208 139 360 b 139 512 220 677 393 677 b 564 677 647 513 647 361 z m 768 -28 b 715 8 654 61 585 53 l 583 55 b 678 127 717 253 717 368 b 717 564 604 737 393 737 b 182 737 67 556 67 361 b 67 166 182 -15 393 -15 b 448 -15 500 14 556 14 b 626 14 681 -43 735 -80 z"},"w":{"x_min":0,"x_max":832,"ha":832,"o":"m 15 502 l 199 0 l 260 0 l 417 433 l 419 433 l 573 0 l 630 0 l 817 502 l 751 502 l 606 83 l 604 83 l 456 502 l 385 502 l 233 79 l 231 79 l 81 502 z"},"-":{"x_min":0,"x_max":322,"ha":322,"o":"m 253 369 l 25 369 l 25 333 l 253 333 z"},"E":{"x_min":0,"x_max":609,"ha":609,"o":"m 544 60 l 165 60 l 165 343 l 505 343 l 505 403 l 165 403 l 165 662 l 524 662 l 524 722 l 100 722 l 100 0 l 544 0 z"},"s":{"x_min":0,"x_max":481,"ha":481,"o":"m 47 381 b 47 190 365 282 365 140 b 365 69 295 40 234 40 b 169 40 114 82 110 157 l 45 157 b 47 45 139 -15 236 -15 b 331 -15 431 31 431 140 b 431 340 112 257 112 381 b 112 442 174 462 225 462 b 281 462 349 438 349 348 l 414 348 b 414 475 320 517 225 517 b 135 517 47 485 47 381 z"},">":{"x_min":0,"x_max":599,"ha":599,"o":"m 80 65 l 80 1 l 580 224 l 580 277 l 80 512 l 80 448 l 501 251 z"},"l":{"x_min":0,"x_max":220,"ha":220,"o":"m 80 722 l 80 0 l 140 0 l 140 722 z"},"8":{"x_min":0,"x_max":570,"ha":570,"o":"m 285 331 b 370 331 452 281 452 188 b 452 93 371 45 285 45 b 197 45 119 93 119 188 b 119 282 198 331 285 331 z m 123 520 b 123 608 206 652 285 652 b 363 652 447 608 447 520 b 447 431 363 391 285 391 b 206 391 123 431 123 520 z m 201 359 b 115 341 49 274 49 184 b 49 56 168 -15 285 -15 b 403 -15 522 60 522 188 b 522 277 453 339 371 360 l 371 361 b 449 378 511 439 511 522 b 511 644 395 707 285 707 b 174 707 60 647 60 523 b 60 438 116 371 201 361 z"},"\\":{"x_min":0,"x_max":445,"ha":445,"o":"m 395 0 l 93 722 l 50 722 l 352 0 z"},"e":{"x_min":0,"x_max":568,"ha":568,"o":"m 117 292 b 125 381 178 462 275 462 b 379 462 431 389 438 292 z m 503 237 b 503 389 445 517 274 517 b 128 517 47 376 47 244 b 47 105 133 -15 280 -15 b 398 -15 468 48 497 160 l 434 160 b 418 90 351 40 280 40 b 158 40 117 127 115 237 z"},"b":{"x_min":0,"x_max":551,"ha":551,"o":"m 127 78 b 168 19 226 -15 299 -15 b 440 -15 506 133 506 255 b 506 378 439 517 299 517 b 232 517 161 485 127 426 l 125 426 l 125 722 l 65 722 l 65 0 l 125 0 l 125 78 z m 299 462 b 405 462 443 345 443 257 b 443 172 404 40 299 40 b 183 40 123 146 123 251 b 123 356 183 462 299 462 z"},"%":{"x_min":0,"x_max":900,"ha":900,"o":"m 807 174 b 807 110 779 30 703 30 b 625 30 599 108 599 174 b 599 240 625 318 703 318 b 779 318 807 238 807 174 z m 544 174 b 544 78 598 -15 703 -15 b 809 -15 862 78 862 174 b 862 269 807 363 703 363 b 599 363 544 269 544 174 z m 138 518 b 138 422 192 329 297 329 b 403 329 456 422 456 518 b 456 613 401 707 297 707 b 193 707 138 613 138 518 z m 283 0 l 341 0 l 731 707 l 673 707 z m 401 518 b 401 454 373 374 297 374 b 219 374 193 452 193 518 b 193 584 219 662 297 662 b 373 662 401 582 401 518 z"},"m":{"x_min":0,"x_max":887,"ha":887,"o":"m 75 502 l 75 0 l 135 0 l 135 288 b 135 332 148 462 299 462 b 394 462 411 385 411 288 l 411 0 l 471 0 l 471 288 b 471 332 484 462 635 462 b 730 462 747 384 747 288 l 747 0 l 807 0 l 807 288 b 807 412 782 517 635 517 b 561 517 495 468 457 407 b 433 477 372 517 299 517 b 230 517 171 487 137 426 l 135 426 l 135 502 z"},"#":{"x_min":0,"x_max":560,"ha":560,"o":"m 362 269 l 211 269 l 211 424 l 362 424 z m 503 224 l 503 269 l 405 269 l 405 424 l 503 424 l 503 468 l 405 468 l 405 672 l 362 672 l 362 468 l 211 468 l 211 672 l 169 672 l 169 468 l 71 468 l 71 424 l 169 424 l 169 269 l 71 269 l 71 224 l 169 224 l 169 20 l 211 20 l 211 224 l 362 224 l 362 20 l 405 20 l 405 224 z"},",":{"x_min":0,"x_max":240,"ha":240,"o":"m 59 -124 l 111 -124 l 183 81 l 102 81 z"},"n":{"x_min":0,"x_max":551,"ha":551,"o":"m 294 462 b 400 462 411 376 411 289 l 411 0 l 471 0 l 471 289 b 471 411 436 517 294 517 b 225 517 171 486 137 426 l 135 426 l 135 502 l 75 502 l 75 0 l 135 0 l 135 289 b 135 397 197 462 294 462 z"},"h":{"x_min":0,"x_max":556,"ha":556,"o":"m 80 722 l 80 0 l 140 0 l 140 304 b 140 401 203 462 299 462 b 390 462 416 382 416 304 l 416 0 l 476 0 l 476 304 b 476 422 430 517 299 517 b 230 517 176 486 142 426 l 140 426 l 140 722 z"},"z":{"x_min":0,"x_max":444,"ha":444,"o":"m 404 0 l 404 55 l 113 55 l 404 447 l 404 502 l 40 502 l 40 447 l 333 447 l 40 55 l 40 0 z"},"B":{"x_min":0,"x_max":665,"ha":665,"o":"m 285 344 b 396 344 520 336 520 193 b 520 80 409 60 319 60 l 165 60 l 165 344 z m 359 0 b 483 0 590 55 590 193 b 590 291 520 361 426 376 l 426 378 b 502 397 530 479 530 535 b 530 676 419 722 309 722 l 100 722 l 100 0 z m 165 662 l 309 662 b 403 662 460 616 460 535 b 460 422 380 404 285 404 l 165 404 z"},"K":{"x_min":0,"x_max":610,"ha":610,"o":"m 169 377 l 516 0 l 605 0 l 246 376 l 554 722 l 472 722 l 169 379 l 169 722 l 105 722 l 105 0 l 169 0 z"},"R":{"x_min":0,"x_max":660,"ha":660,"o":"m 304 344 b 516 344 500 175 534 0 l 600 0 b 579 103 568 329 431 369 l 431 371 b 510 380 580 451 580 533 b 580 701 439 722 304 722 l 100 722 l 100 0 l 165 0 l 165 344 z m 165 662 l 341 662 b 422 662 510 640 510 541 b 510 416 415 404 312 404 l 165 404 z"},"T":{"x_min":0,"x_max":558,"ha":558,"o":"m 313 0 l 314 662 l 543 662 l 543 722 l 15 722 l 15 662 l 248 662 l 249 0 z"},"P":{"x_min":0,"x_max":611,"ha":611,"o":"m 165 314 b 321 314 576 294 576 518 b 576 688 421 722 281 722 l 100 722 l 100 0 l 165 0 z m 323 662 b 422 662 506 630 506 518 b 506 406 422 374 323 374 l 165 374 l 165 662 z"},"|":{"x_min":0,"x_max":220,"ha":220,"o":"m 140 -230 l 140 770 l 80 770 l 80 -230 z"},"t":{"x_min":0,"x_max":336,"ha":336,"o":"m 245 -15 b 266 -15 286 -11 306 -6 l 306 43 b 286 40 266 35 246 35 b 189 35 185 89 185 134 l 185 447 l 306 447 l 306 502 l 185 502 l 185 635 l 125 635 l 125 502 l 25 502 l 25 447 l 125 447 l 125 134 b 125 39 134 -15 245 -15 z"},"M":{"x_min":0,"x_max":951,"ha":951,"o":"m 165 664 l 167 664 l 443 0 l 508 0 l 784 667 l 786 667 l 786 0 l 851 0 l 851 722 l 752 722 l 475 93 l 204 722 l 100 722 l 100 0 l 165 0 z"},"g":{"x_min":0,"x_max":551,"ha":551,"o":"m 424 424 b 386 480 328 517 259 517 b 118 517 42 383 42 256 b 42 128 120 2 259 2 b 324 2 394 36 424 96 l 426 96 l 426 2 b 426 -92 344 -137 259 -137 b 204 -137 140 -121 132 -57 l 67 -57 b 67 -161 173 -192 259 -192 b 423 -192 486 -111 486 47 l 486 502 l 426 502 l 426 424 z m 259 57 b 152 57 110 165 110 256 b 110 345 153 462 259 462 b 370 462 427 356 427 257 b 427 155 371 57 259 57 z"},"j":{"x_min":0,"x_max":223,"ha":223,"o":"m 76 722 l 76 647 l 146 647 l 146 722 z m 43 -192 b 138 -192 142 -152 142 -66 l 142 502 l 81 502 l 82 -81 b 82 -112 81 -137 43 -137 z"},"i":{"x_min":0,"x_max":220,"ha":220,"o":"m 75 722 l 75 647 l 145 647 l 145 722 z m 80 0 l 140 0 l 140 502 l 80 502 z"},"y":{"x_min":0,"x_max":500,"ha":500,"o":"m 218 0 l 142 -192 l 208 -192 l 485 502 l 420 502 l 252 82 l 83 502 l 10 502 z"},"@":{"x_min":0,"x_max":808,"ha":808,"o":"m 539 520 b 519 561 476 585 428 585 b 281 585 183 419 183 289 b 183 200 228 136 319 136 b 365 136 405 153 438 186 b 449 153 484 134 523 134 b 578 134 631 163 680 222 b 729 281 754 348 754 424 b 754 514 721 589 655 648 b 589 707 508 737 412 737 b 308 737 220 702 148 631 b 76 561 40 470 40 357 b 40 252 75 164 146 92 b 217 21 306 -15 412 -15 b 479 -15 542 2 601 35 b 661 68 706 113 737 170 l 679 170 b 618 85 516 35 412 35 b 323 35 249 66 189 128 b 130 190 100 266 100 357 b 100 448 129 526 188 590 b 247 655 322 687 412 687 b 489 687 556 663 611 615 b 666 568 693 505 694 427 b 696 324 615 187 537 189 b 518 190 508 198 508 215 b 508 226 512 243 520 266 l 620 566 l 554 566 z m 430 525 b 475 524 496 493 497 444 b 500 352 408 194 334 196 b 283 198 260 235 258 294 b 256 389 332 526 430 525 z"},".":{"x_min":0,"x_max":242,"ha":242,"o":"m 179 86 l 99 86 l 99 0 l 179 0 z"},"p":{"x_min":0,"x_max":550,"ha":550,"o":"m 127 78 b 170 15 216 -15 287 -15 b 427 -16 505 121 505 255 b 505 388 429 517 287 517 b 216 517 162 487 127 426 l 125 426 l 125 502 l 65 502 l 65 -192 l 125 -192 l 125 78 z m 287 462 b 389 462 441 357 441 253 b 441 147 389 40 287 40 b 66 40 66 462 287 462 z"},"X":{"x_min":0,"x_max":611,"ha":611,"o":"m 520 0 l 603 0 l 345 372 l 595 722 l 522 722 l 310 418 l 106 722 l 21 722 l 265 372 l 8 0 l 82 0 l 301 323 z"},"*":{"x_min":0,"x_max":475,"ha":475,"o":"m 116 532 l 247 532 l 181 418 l 212 400 l 278 514 l 343 400 l 374 418 l 308 532 l 439 532 l 439 567 l 308 567 l 374 681 l 343 698 l 278 585 l 212 698 l 181 681 l 247 567 l 116 567 z"},"Y":{"x_min":0,"x_max":615,"ha":615,"o":"m 341 0 l 341 314 l 605 722 l 535 722 l 314 373 l 93 722 l 10 722 l 276 312 l 276 0 z"},"c":{"x_min":0,"x_max":501,"ha":501,"o":"m 461 348 b 455 456 364 517 262 517 b 119 517 45 374 45 247 b 45 117 118 -15 262 -15 b 377 -15 445 42 461 157 l 396 157 b 391 75 340 40 262 40 b 154 40 110 159 110 250 b 110 341 153 462 262 462 b 341 462 391 431 396 348 z"},"!":{"x_min":0,"x_max":303,"ha":303,"o":"m 155 0 l 235 0 l 235 86 l 155 86 z m 236 722 l 154 722 l 167 171 l 223 171 z"},"/":{"x_min":0,"x_max":553,"ha":553,"o":"m 457 707 l 50 0 l 98 0 l 503 707 z"},"[":{"x_min":0,"x_max":260,"ha":260,"o":"m 222 4 l 150 4 l 150 722 l 222 722 l 222 772 l 85 772 l 85 -46 l 222 -46 z"},"6":{"x_min":0,"x_max":570,"ha":570,"o":"m 300 707 b 76 707 52 485 52 311 b 52 145 106 -15 300 -15 b 436 -15 518 78 518 211 b 518 345 442 449 300 449 b 219 449 156 413 124 336 l 122 336 b 122 461 133 647 300 647 b 368 647 437 603 439 530 l 509 530 b 507 649 410 707 300 707 z m 300 394 b 403 394 448 303 448 211 b 448 115 402 45 300 45 b 210 45 134 121 134 211 b 134 313 192 394 300 394 z"},"r":{"x_min":0,"x_max":330,"ha":330,"o":"m 135 0 l 135 302 b 135 429 194 462 310 462 l 310 517 l 269 517 b 210 517 158 484 137 428 l 135 428 l 135 502 l 75 502 l 75 0 z"},"2":{"x_min":0,"x_max":570,"ha":570,"o":"m 503 60 l 146 60 b 242 151 494 372 494 515 b 494 638 402 707 285 707 b 166 707 75 632 75 509 l 145 509 b 145 591 204 647 285 647 b 359 647 424 604 424 524 b 424 400 162 154 68 68 l 68 0 l 503 0 z"},"{":{"x_min":0,"x_max":290,"ha":290,"o":"m 112 262 b 256 381 93 631 250 622 l 250 672 l 200 672 b 24 672 197 308 40 289 l 40 234 b 199 212 23 -146 200 -146 l 250 -146 l 250 -96 b 89 -107 254 173 112 262 z"},"9":{"x_min":0,"x_max":570,"ha":570,"o":"m 54 170 b 64 47 156 -15 274 -15 b 480 -15 519 201 519 365 b 519 537 482 707 274 707 b 139 707 52 607 52 476 b 52 349 150 266 274 266 b 352 266 411 303 447 372 l 449 372 l 449 345 b 449 228 428 45 274 45 b 196 45 126 86 124 170 z m 274 647 b 386 647 437 586 437 476 b 437 379 368 321 274 321 b 182 321 122 385 122 476 b 122 572 171 647 274 647 z"}," ":{"x_min":0,"x_max":250,"ha":250,"o":""},"I":{"x_min":0,"x_max":245,"ha":245,"o":"m 155 725 l 90 725 l 90 0 l 155 0 z"},"H":{"x_min":0,"x_max":724,"ha":724,"o":"m 165 345 l 559 345 l 559 0 l 624 0 l 624 722 l 559 722 l 559 405 l 165 405 l 165 722 l 100 722 l 100 0 l 165 0 z"},"4":{"x_min":0,"x_max":570,"ha":570,"o":"m 90 215 l 358 627 l 360 627 l 360 215 z m 425 0 l 425 161 l 536 161 l 536 215 l 425 215 l 425 692 l 339 692 l 35 224 l 35 161 l 360 161 l 360 0 z"},"~":{"x_min":0,"x_max":660,"ha":660,"o":"m 221 319 b 156 319 112 265 80 216 l 113 169 b 137 214 171 264 227 264 b 260 264 379 191 440 191 b 506 191 551 247 580 300 l 540 334 b 521 296 489 247 441 247 b 382 247 296 319 221 319 z"},"D":{"x_min":0,"x_max":722,"ha":722,"o":"m 90 0 l 257 0 b 444 0 657 61 657 361 b 657 656 423 722 257 722 l 90 722 z m 155 662 l 257 662 b 392 662 587 611 587 361 b 587 106 416 60 257 60 l 155 60 z"},"^":{"x_min":0,"x_max":626,"ha":626,"o":"m 329 631 l 530 239 l 587 239 l 356 692 l 304 692 l 74 239 l 132 239 z"},"0":{"x_min":0,"x_max":570,"ha":570,"o":"m 55 346 b 55 191 87 -15 285 -15 b 483 -15 515 191 515 346 b 515 501 483 707 285 707 b 87 707 55 501 55 346 z m 445 346 b 445 238 433 45 285 45 b 138 45 125 238 125 346 b 125 454 138 647 285 647 b 433 647 445 454 445 346 z"},"F":{"x_min":0,"x_max":578,"ha":578,"o":"m 160 347 l 503 347 l 503 407 l 160 407 l 160 662 l 523 662 l 523 722 l 95 722 l 95 0 l 160 0 z"},"`":{"x_min":0,"x_max":229,"ha":229,"o":"m 147 564 l 191 564 l 100 707 l 20 707 z"},"k":{"x_min":0,"x_max":500,"ha":500,"o":"m 85 722 l 85 0 l 145 0 l 145 272 l 409 0 l 485 0 l 220 272 l 479 502 l 402 502 l 145 276 l 145 722 z"},"u":{"x_min":0,"x_max":551,"ha":551,"o":"m 257 40 b 176 40 140 105 140 178 l 140 502 l 80 502 l 80 178 b 80 67 140 -15 257 -15 b 325 -15 381 17 414 76 l 416 76 l 416 0 l 476 0 l 476 502 l 416 502 l 416 178 b 416 83 345 40 257 40 z"},"]":{"x_min":0,"x_max":278,"ha":278,"o":"m 56 722 l 128 722 l 128 4 l 56 4 l 56 -46 l 193 -46 l 193 772 l 56 772 z"},"U":{"x_min":0,"x_max":728,"ha":728,"o":"m 100 254 b 100 91 199 -15 364 -15 b 529 -15 628 91 628 254 l 628 722 l 563 722 l 563 255 b 563 134 489 45 364 45 b 239 45 165 134 165 255 l 165 722 l 100 722 z"},"o":{"x_min":0,"x_max":560,"ha":560,"o":"m 45 251 b 45 111 129 -15 279 -15 b 429 -15 515 109 515 250 b 515 391 430 517 279 517 b 130 517 45 391 45 251 z m 111 251 b 111 353 165 462 280 462 b 393 462 449 350 449 250 b 449 150 393 40 280 40 b 166 40 111 150 111 251 z"},"N":{"x_min":0,"x_max":719,"ha":719,"o":"m 155 0 l 155 624 l 157 624 l 547 0 l 629 0 l 629 722 l 564 722 l 564 87 l 562 87 l 164 722 l 90 722 l 90 0 z"},"+":{"x_min":0,"x_max":595,"ha":595,"o":"m 568 368 l 348 368 l 348 589 l 312 589 l 312 368 l 92 368 l 92 332 l 312 332 l 312 111 l 348 111 l 348 332 l 568 332 z"},"G":{"x_min":0,"x_max":725,"ha":725,"o":"m 376 308 l 570 308 l 570 115 b 570 65 433 45 396 45 b 220 45 137 208 137 365 b 137 508 211 677 376 677 b 460 677 544 634 556 544 l 630 544 b 620 672 493 737 376 737 b 173 737 65 537 65 355 b 65 156 184 -15 396 -15 b 452 -15 635 16 635 90 l 635 368 l 376 368 z"},"q":{"x_min":0,"x_max":551,"ha":551,"o":"m 426 502 l 426 428 l 424 428 b 389 484 324 517 255 517 b 118 517 45 386 45 255 b 45 120 120 -15 255 -15 b 325 -15 381 16 424 78 l 426 78 l 426 -191 l 486 -191 l 486 502 z m 255 40 b 161 40 107 147 109 253 b 110 358 157 462 255 462 b 367 462 428 358 428 252 b 428 146 367 40 255 40 z"},"d":{"x_min":0,"x_max":551,"ha":551,"o":"m 486 0 l 486 722 l 426 722 l 426 426 l 424 426 b 390 485 319 517 252 517 b 108 517 45 380 45 254 b 45 131 110 -15 252 -15 b 325 -15 383 19 424 78 l 426 78 l 426 0 z m 252 40 b 145 40 108 166 108 253 b 108 340 146 462 252 462 b 367 462 426 356 426 252 b 426 148 368 40 252 40 z"},"1":{"x_min":0,"x_max":570,"ha":570,"o":"m 203 540 l 331 624 l 331 0 l 396 0 l 396 692 l 334 692 l 175 583 z"},"5":{"x_min":0,"x_max":570,"ha":570,"o":"m 132 291 b 145 357 216 396 279 396 b 378 396 441 319 441 223 b 441 128 379 45 279 45 b 202 45 135 88 132 170 l 62 170 b 64 40 168 -15 286 -15 b 419 -15 509 97 509 225 b 509 355 418 456 286 456 b 227 456 169 427 132 383 l 132 632 l 473 632 l 473 692 l 62 692 l 62 291 z"}}}
